<svg xmlns="http://www.w3.org/2000/svg" xmlns:xlink="http://www.w3.org/1999/xlink" width="500" zoomAndPan="magnify" viewBox="0 0 375 374.999991" height="500" preserveAspectRatio="xMidYMid meet" version="1.0"><defs><g/><clipPath id="id1"><path d="M 139.28125 114.8125 L 227 114.8125 L 227 185.3125 L 139.28125 185.3125 Z M 139.28125 114.8125 " clip-rule="nonzero"/></clipPath><clipPath id="id2"><path d="M 203 160 L 240.378906 160 L 240.378906 191 L 203 191 Z M 203 160 " clip-rule="nonzero"/></clipPath><clipPath id="id3"><path d="M 139 152 L 162 152 L 162 177 L 139 177 Z M 139 152 " clip-rule="nonzero"/></clipPath><clipPath id="id4"><path d="M 140.039062 149.992188 L 164.960938 155.394531 L 159.878906 178.847656 L 134.957031 173.445312 Z M 140.039062 149.992188 " clip-rule="nonzero"/></clipPath><clipPath id="id5"><path d="M 164.894531 155.378906 L 139.972656 149.976562 L 134.886719 173.429688 L 159.808594 178.832031 Z M 164.894531 155.378906 " clip-rule="nonzero"/></clipPath></defs><g clip-path="url(#id1)"><path fill="#008037" d="M 226.246094 174.910156 C 225.769531 175.402344 225.046875 176.097656 224.074219 176.914062 C 222.128906 178.546875 219.105469 180.640625 215.070312 182.261719 C 213.058594 183.070312 210.792969 183.746094 208.347656 184.167969 C 207.09375 184.386719 205.792969 184.535156 204.457031 184.609375 L 204.457031 124.566406 L 187.835938 114.8125 L 176.621094 124.683594 L 176.621094 135.546875 L 167.300781 130.078125 L 159.675781 136.789062 L 159.675781 172.441406 C 157.535156 172.238281 155.488281 172.179688 153.585938 172.234375 C 149.207031 172.347656 145.605469 173.070312 143.152344 173.738281 C 141.921875 174.074219 140.976562 174.40625 140.335938 174.648438 C 139.699219 174.886719 139.371094 175.042969 139.371094 175.042969 C 139.371094 175.042969 140.714844 174.46875 143.183594 173.863281 C 145.644531 173.246094 149.246094 172.65625 153.59375 172.597656 C 155.765625 172.570312 158.121094 172.6875 160.585938 173.011719 C 163.054688 173.335938 165.628906 173.859375 168.242188 174.585938 C 170.855469 175.316406 173.496094 176.269531 176.101562 177.429688 C 178.707031 178.570312 181.226562 180.046875 183.929688 181.191406 C 185.277344 181.765625 186.640625 182.289062 188.019531 182.765625 C 189.398438 183.230469 190.792969 183.640625 192.191406 183.984375 C 194.988281 184.679688 197.808594 185.082031 200.550781 185.191406 C 203.296875 185.308594 205.957031 185.089844 208.429688 184.625 C 210.902344 184.160156 213.183594 183.441406 215.207031 182.59375 C 217.230469 181.753906 218.992188 180.765625 220.484375 179.792969 C 221.972656 178.816406 223.191406 177.851562 224.152344 177.007812 C 225.113281 176.167969 225.808594 175.441406 226.269531 174.933594 C 226.730469 174.425781 226.949219 174.136719 226.949219 174.136719 C 226.949219 174.136719 226.71875 174.421875 226.246094 174.910156 Z M 161.589844 137.664062 L 166.933594 132.964844 L 166.933594 173.667969 C 165.121094 173.226562 163.332031 172.894531 161.589844 172.660156 Z M 168.390625 174.046875 C 168.222656 174 168.058594 173.957031 167.890625 173.914062 L 167.890625 132.660156 L 176.621094 137.78125 L 176.621094 177.003906 C 176.527344 176.964844 176.433594 176.921875 176.34375 176.878906 C 173.707031 175.722656 171.03125 174.769531 168.390625 174.046875 Z M 180.257812 178.753906 C 179.6875 178.46875 179.113281 178.179688 178.539062 177.898438 L 178.539062 125.558594 L 187.46875 117.699219 L 187.46875 181.910156 C 186.363281 181.507812 185.265625 181.070312 184.179688 180.605469 C 182.855469 180.015625 181.550781 179.421875 180.257812 178.753906 Z M 200.574219 184.636719 C 197.875 184.511719 195.089844 184.105469 192.335938 183.40625 C 191.027344 183.074219 189.71875 182.6875 188.425781 182.25 L 188.425781 117.394531 L 202.539062 125.671875 L 202.539062 184.671875 C 201.890625 184.675781 201.234375 184.664062 200.574219 184.636719 Z M 200.574219 184.636719 " fill-opacity="1" fill-rule="nonzero"/></g><g clip-path="url(#id2)"><path fill="#008037" d="M 232.003906 164.800781 C 214.324219 164.722656 204.832031 172.914062 204.019531 189.867188 C 204.011719 190.082031 203.695312 190.09375 203.667969 189.882812 C 202.878906 184.34375 203.03125 179.292969 204.449219 174.90625 C 209.125 160.421875 226.964844 158.519531 239.621094 163.105469 C 240.253906 163.332031 240.378906 164.140625 239.855469 164.558594 C 229.980469 172.390625 231.324219 193.769531 207.292969 184.503906 C 211.046875 172.929688 218.742188 165.757812 232.003906 164.800781 " fill-opacity="1" fill-rule="evenodd"/></g><g clip-path="url(#id3)"><g clip-path="url(#id4)"><g clip-path="url(#id5)"><path fill="#008037" d="M 144.632812 155.363281 C 156.390625 157.855469 161.519531 164.671875 159.613281 176.070312 C 159.589844 176.214844 159.796875 176.265625 159.847656 176.128906 C 161.167969 172.558594 161.796875 169.179688 161.488281 166.054688 C 160.46875 155.742188 148.886719 151.910156 139.8125 153.136719 C 139.363281 153.195312 139.160156 153.714844 139.449219 154.070312 C 144.878906 160.703125 140.902344 174.734375 158.210938 172.03125 C 157.386719 163.789062 153.304688 157.910156 144.632812 155.363281 " fill-opacity="1" fill-rule="evenodd"/></g></g></g><g fill="#006029" fill-opacity="1"><g transform="translate(83.83071, 218.797282)"><g><path d="M 21.171875 -7.1875 C 20.765625 -5.207031 20.421875 -2.863281 20.140625 -0.15625 L 19.765625 0.265625 C 14.921875 0.0859375 10.976562 0 7.9375 0 C 5.8125 0 3.644531 0.125 1.4375 0.375 L 1.703125 -2.171875 C 2.773438 -2.316406 3.5 -2.617188 3.875 -3.078125 C 4.257812 -3.535156 4.453125 -4.320312 4.453125 -5.4375 L 4.484375 -19.90625 C 4.484375 -20.75 4.40625 -21.300781 4.25 -21.5625 C 4.101562 -21.832031 3.773438 -21.96875 3.265625 -21.96875 C 2.941406 -21.96875 2.550781 -21.941406 2.09375 -21.890625 L 1.859375 -22.234375 L 2.171875 -24.515625 L 2.921875 -24.515625 C 4.722656 -24.429688 6.765625 -24.390625 9.046875 -24.390625 C 14.691406 -24.390625 18.539062 -24.546875 20.59375 -24.859375 L 20.90625 -24.4375 C 20.695312 -23.5 20.507812 -22.382812 20.34375 -21.09375 C 20.1875 -19.800781 20.082031 -18.625 20.03125 -17.5625 L 16.640625 -17.328125 L 16.71875 -18.84375 C 16.71875 -19.601562 16.609375 -20.140625 16.390625 -20.453125 C 16.179688 -20.773438 15.753906 -20.992188 15.109375 -21.109375 C 14.460938 -21.222656 13.378906 -21.28125 11.859375 -21.28125 C 11.203125 -21.28125 10.742188 -21.253906 10.484375 -21.203125 C 10.234375 -21.148438 10.0625 -21.035156 9.96875 -20.859375 C 9.882812 -20.679688 9.828125 -20.390625 9.796875 -19.984375 L 9.53125 -14.015625 L 13.109375 -13.984375 C 13.640625 -13.984375 14.300781 -14.015625 15.09375 -14.078125 C 15.894531 -14.140625 16.703125 -14.222656 17.515625 -14.328125 L 17.828125 -13.984375 L 17.296875 -10.75 C 16.960938 -10.75 16.707031 -10.765625 16.53125 -10.796875 C 14.757812 -10.847656 13.351562 -10.875 12.3125 -10.875 C 11.53125 -10.875 10.554688 -10.796875 9.390625 -10.640625 L 9.3125 -5.203125 C 9.3125 -4.492188 9.367188 -3.988281 9.484375 -3.6875 C 9.597656 -3.382812 9.8125 -3.179688 10.125 -3.078125 C 10.445312 -2.972656 11 -2.921875 11.78125 -2.921875 C 13.445312 -2.921875 14.65625 -3.015625 15.40625 -3.203125 C 16.15625 -3.398438 16.691406 -3.789062 17.015625 -4.375 C 17.347656 -4.957031 17.601562 -5.921875 17.78125 -7.265625 L 20.90625 -7.53125 Z M 21.171875 -7.1875 "/></g></g></g><g fill="#006029" fill-opacity="1"><g transform="translate(106.47408, 218.797282)"><g><path d="M 12.390625 0.453125 C 10.085938 0.453125 8.085938 -0.0234375 6.390625 -0.984375 C 4.691406 -1.953125 3.382812 -3.332031 2.46875 -5.125 C 1.5625 -6.925781 1.109375 -9.054688 1.109375 -11.515625 C 1.109375 -14.203125 1.648438 -16.546875 2.734375 -18.546875 C 3.828125 -20.546875 5.378906 -22.097656 7.390625 -23.203125 C 9.398438 -24.304688 11.738281 -24.859375 14.40625 -24.859375 C 15.34375 -24.859375 16.347656 -24.785156 17.421875 -24.640625 C 18.492188 -24.503906 19.410156 -24.359375 20.171875 -24.203125 C 20.929688 -24.054688 21.414062 -23.957031 21.625 -23.90625 L 21.84375 -23.40625 C 21.800781 -23.226562 21.710938 -22.820312 21.578125 -22.1875 C 21.453125 -21.550781 21.3125 -20.703125 21.15625 -19.640625 C 21.007812 -18.578125 20.898438 -17.453125 20.828125 -16.265625 L 17.21875 -16.03125 C 17.21875 -16.132812 17.226562 -16.367188 17.25 -16.734375 C 17.28125 -17.109375 17.296875 -17.535156 17.296875 -18.015625 C 17.296875 -19.128906 16.953125 -19.941406 16.265625 -20.453125 C 15.578125 -20.972656 14.5 -21.234375 13.03125 -21.234375 C 11.03125 -21.234375 9.503906 -20.523438 8.453125 -19.109375 C 7.398438 -17.691406 6.875 -15.601562 6.875 -12.84375 C 6.875 -9.726562 7.4375 -7.304688 8.5625 -5.578125 C 9.695312 -3.859375 11.273438 -3 13.296875 -3 C 14.691406 -3 15.78125 -3.421875 16.5625 -4.265625 C 17.351562 -5.117188 17.898438 -6.472656 18.203125 -8.328125 L 21.84375 -8.546875 C 21.769531 -8.117188 21.640625 -7.171875 21.453125 -5.703125 C 21.265625 -4.234375 21.144531 -2.835938 21.09375 -1.515625 L 20.703125 -1.0625 C 20.703125 -1.039062 20.273438 -0.894531 19.421875 -0.625 C 18.578125 -0.363281 17.539062 -0.117188 16.3125 0.109375 C 15.09375 0.335938 13.785156 0.453125 12.390625 0.453125 Z M 12.390625 0.453125 "/></g></g></g><g fill="#006029" fill-opacity="1"><g transform="translate(129.877304, 218.797282)"><g><path d="M 11.96875 0.453125 C 9.738281 0.453125 7.804688 -0.03125 6.171875 -1 C 4.535156 -1.976562 3.28125 -3.363281 2.40625 -5.15625 C 1.539062 -6.957031 1.109375 -9.085938 1.109375 -11.546875 C 1.109375 -14.179688 1.625 -16.5 2.65625 -18.5 C 3.695312 -20.507812 5.160156 -22.070312 7.046875 -23.1875 C 8.929688 -24.300781 11.101562 -24.859375 13.5625 -24.859375 C 15.84375 -24.859375 17.8125 -24.378906 19.46875 -23.421875 C 21.132812 -22.472656 22.40625 -21.101562 23.28125 -19.3125 C 24.15625 -17.53125 24.59375 -15.410156 24.59375 -12.953125 C 24.59375 -10.316406 24.066406 -7.976562 23.015625 -5.9375 C 21.960938 -3.90625 20.476562 -2.332031 18.5625 -1.21875 C 16.644531 -0.101562 14.445312 0.453125 11.96875 0.453125 Z M 12.953125 -2.78125 C 14.773438 -2.78125 16.195312 -3.492188 17.21875 -4.921875 C 18.25 -6.347656 18.765625 -8.367188 18.765625 -10.984375 C 18.765625 -14.296875 18.21875 -16.832031 17.125 -18.59375 C 16.039062 -20.351562 14.5 -21.234375 12.5 -21.234375 C 10.695312 -21.234375 9.296875 -20.519531 8.296875 -19.09375 C 7.296875 -17.664062 6.796875 -15.644531 6.796875 -13.03125 C 6.796875 -9.71875 7.332031 -7.179688 8.40625 -5.421875 C 9.488281 -3.660156 11.003906 -2.78125 12.953125 -2.78125 Z M 12.953125 -2.78125 "/></g></g></g><g fill="#006029" fill-opacity="1"><g transform="translate(155.522058, 218.797282)"><g><path d="M 1.90625 -7.859375 L 2.203125 -10.796875 L 8.4375 -11.46875 C 9.300781 -11.570312 9.953125 -11.65625 10.390625 -11.71875 C 10.835938 -11.78125 11.109375 -11.828125 11.203125 -11.859375 L 11.59375 -11.359375 L 11.25 -8.390625 L 2.28125 -7.40625 Z M 1.90625 -7.859375 "/></g></g></g><g fill="#006029" fill-opacity="1"><g transform="translate(169.009297, 218.797282)"><g><path d="M 12.421875 0.453125 C 10.097656 0.453125 8.085938 -0.0234375 6.390625 -0.984375 C 4.691406 -1.953125 3.382812 -3.332031 2.46875 -5.125 C 1.5625 -6.925781 1.109375 -9.054688 1.109375 -11.515625 C 1.109375 -14.253906 1.648438 -16.625 2.734375 -18.625 C 3.828125 -20.625 5.382812 -22.160156 7.40625 -23.234375 C 9.4375 -24.316406 11.832031 -24.859375 14.59375 -24.859375 C 15.582031 -24.859375 16.632812 -24.785156 17.75 -24.640625 C 18.863281 -24.503906 19.8125 -24.359375 20.59375 -24.203125 C 21.382812 -24.054688 21.890625 -23.957031 22.109375 -23.90625 L 22.375 -23.40625 C 22.332031 -23.257812 22.242188 -22.875 22.109375 -22.25 C 21.984375 -21.625 21.851562 -20.796875 21.71875 -19.765625 C 21.582031 -18.742188 21.472656 -17.648438 21.390625 -16.484375 L 17.75 -16.21875 C 17.769531 -16.320312 17.789062 -16.5625 17.8125 -16.9375 C 17.84375 -17.320312 17.859375 -17.78125 17.859375 -18.3125 C 17.859375 -19.375 17.535156 -20.125 16.890625 -20.5625 C 16.242188 -21.007812 15.175781 -21.234375 13.6875 -21.234375 C 11.375 -21.234375 9.644531 -20.539062 8.5 -19.15625 C 7.363281 -17.78125 6.796875 -15.664062 6.796875 -12.8125 C 6.796875 -9.6875 7.375 -7.269531 8.53125 -5.5625 C 9.6875 -3.851562 11.289062 -3 13.34375 -3 C 14.019531 -3 14.632812 -3.070312 15.1875 -3.21875 C 15.75 -3.375 16.1875 -3.535156 16.5 -3.703125 C 16.820312 -3.867188 17.019531 -3.976562 17.09375 -4.03125 L 17.09375 -7.640625 C 17.09375 -8.367188 16.976562 -8.851562 16.75 -9.09375 C 16.53125 -9.34375 16.078125 -9.46875 15.390625 -9.46875 L 13.40625 -9.46875 L 13.21875 -9.765625 L 13.609375 -12.46875 C 14.210938 -12.46875 14.726562 -12.453125 15.15625 -12.421875 C 16.582031 -12.367188 17.828125 -12.34375 18.890625 -12.34375 C 19.671875 -12.34375 20.441406 -12.367188 21.203125 -12.421875 C 21.960938 -12.472656 22.457031 -12.515625 22.6875 -12.546875 L 22.953125 -11.09375 C 22.523438 -10.8125 22.203125 -10.460938 21.984375 -10.046875 C 21.765625 -9.628906 21.617188 -9.035156 21.546875 -8.265625 C 21.472656 -7.492188 21.4375 -6.359375 21.4375 -4.859375 C 21.4375 -3.335938 21.523438 -2.238281 21.703125 -1.5625 L 21.359375 -1.109375 C 21.359375 -1.078125 20.929688 -0.921875 20.078125 -0.640625 C 19.234375 -0.367188 18.144531 -0.117188 16.8125 0.109375 C 15.476562 0.335938 14.015625 0.453125 12.421875 0.453125 Z M 12.421875 0.453125 "/></g></g></g><g fill="#006029" fill-opacity="1"><g transform="translate(193.856215, 218.797282)"><g><path d="M 19.53125 0.609375 C 17.882812 0.609375 16.503906 -0.566406 15.390625 -2.921875 L 12.078125 -9.609375 L 9.390625 -9.609375 L 9.3125 -5.3125 C 9.3125 -4.425781 9.375 -3.785156 9.5 -3.390625 C 9.625 -3.003906 9.863281 -2.75 10.21875 -2.625 C 10.570312 -2.5 11.179688 -2.421875 12.046875 -2.390625 L 12.15625 -2.171875 L 11.8125 0.15625 C 11.363281 0.125 10.566406 0.09375 9.421875 0.0625 C 8.285156 0.0390625 7.234375 0.03125 6.265625 0.03125 C 5.328125 0.03125 4.363281 0.0546875 3.375 0.109375 C 2.394531 0.160156 1.75 0.203125 1.4375 0.234375 L 1.78125 -2.28125 C 2.84375 -2.40625 3.554688 -2.679688 3.921875 -3.109375 C 4.296875 -3.546875 4.484375 -4.304688 4.484375 -5.390625 L 4.484375 -20.109375 C 4.484375 -20.835938 4.398438 -21.328125 4.234375 -21.578125 C 4.066406 -21.835938 3.742188 -21.96875 3.265625 -21.96875 C 2.984375 -21.96875 2.71875 -21.953125 2.46875 -21.921875 C 2.21875 -21.898438 2.050781 -21.890625 1.96875 -21.890625 L 1.75 -22.1875 L 2.09375 -24.46875 C 2.445312 -24.46875 3.097656 -24.453125 4.046875 -24.421875 C 4.992188 -24.398438 5.925781 -24.390625 6.84375 -24.390625 C 7.851562 -24.390625 8.945312 -24.410156 10.125 -24.453125 C 11.300781 -24.492188 12.117188 -24.523438 12.578125 -24.546875 C 15.460938 -24.546875 17.671875 -23.988281 19.203125 -22.875 C 20.742188 -21.757812 21.515625 -20.148438 21.515625 -18.046875 C 21.515625 -16.554688 21.066406 -15.1875 20.171875 -13.9375 C 19.285156 -12.695312 18.019531 -11.660156 16.375 -10.828125 L 19.71875 -5.390625 C 20.425781 -4.222656 21.109375 -3.382812 21.765625 -2.875 C 22.429688 -2.375 23.171875 -2.125 23.984375 -2.125 L 24.25 -1.78125 L 23.984375 0.1875 Z M 12.921875 -12.546875 C 13.753906 -12.898438 14.507812 -13.421875 15.1875 -14.109375 C 15.875 -14.804688 16.21875 -15.890625 16.21875 -17.359375 C 16.21875 -18.753906 15.75 -19.796875 14.8125 -20.484375 C 13.875 -21.171875 12.429688 -21.515625 10.484375 -21.515625 C 10.234375 -21.515625 10.0625 -21.460938 9.96875 -21.359375 C 9.882812 -21.253906 9.828125 -21.023438 9.796875 -20.671875 C 9.648438 -18.066406 9.550781 -15.484375 9.5 -12.921875 Z M 12.921875 -12.546875 "/></g></g></g><g fill="#006029" fill-opacity="1"><g transform="translate(218.209241, 218.797282)"><g><path d="M 21.171875 -7.1875 C 20.765625 -5.207031 20.421875 -2.863281 20.140625 -0.15625 L 19.765625 0.265625 C 14.921875 0.0859375 10.976562 0 7.9375 0 C 5.8125 0 3.644531 0.125 1.4375 0.375 L 1.703125 -2.171875 C 2.773438 -2.316406 3.5 -2.617188 3.875 -3.078125 C 4.257812 -3.535156 4.453125 -4.320312 4.453125 -5.4375 L 4.484375 -19.90625 C 4.484375 -20.75 4.40625 -21.300781 4.25 -21.5625 C 4.101562 -21.832031 3.773438 -21.96875 3.265625 -21.96875 C 2.941406 -21.96875 2.550781 -21.941406 2.09375 -21.890625 L 1.859375 -22.234375 L 2.171875 -24.515625 L 2.921875 -24.515625 C 4.722656 -24.429688 6.765625 -24.390625 9.046875 -24.390625 C 14.691406 -24.390625 18.539062 -24.546875 20.59375 -24.859375 L 20.90625 -24.4375 C 20.695312 -23.5 20.507812 -22.382812 20.34375 -21.09375 C 20.1875 -19.800781 20.082031 -18.625 20.03125 -17.5625 L 16.640625 -17.328125 L 16.71875 -18.84375 C 16.71875 -19.601562 16.609375 -20.140625 16.390625 -20.453125 C 16.179688 -20.773438 15.753906 -20.992188 15.109375 -21.109375 C 14.460938 -21.222656 13.378906 -21.28125 11.859375 -21.28125 C 11.203125 -21.28125 10.742188 -21.253906 10.484375 -21.203125 C 10.234375 -21.148438 10.0625 -21.035156 9.96875 -20.859375 C 9.882812 -20.679688 9.828125 -20.390625 9.796875 -19.984375 L 9.53125 -14.015625 L 13.109375 -13.984375 C 13.640625 -13.984375 14.300781 -14.015625 15.09375 -14.078125 C 15.894531 -14.140625 16.703125 -14.222656 17.515625 -14.328125 L 17.828125 -13.984375 L 17.296875 -10.75 C 16.960938 -10.75 16.707031 -10.765625 16.53125 -10.796875 C 14.757812 -10.847656 13.351562 -10.875 12.3125 -10.875 C 11.53125 -10.875 10.554688 -10.796875 9.390625 -10.640625 L 9.3125 -5.203125 C 9.3125 -4.492188 9.367188 -3.988281 9.484375 -3.6875 C 9.597656 -3.382812 9.8125 -3.179688 10.125 -3.078125 C 10.445312 -2.972656 11 -2.921875 11.78125 -2.921875 C 13.445312 -2.921875 14.65625 -3.015625 15.40625 -3.203125 C 16.15625 -3.398438 16.691406 -3.789062 17.015625 -4.375 C 17.347656 -4.957031 17.601562 -5.921875 17.78125 -7.265625 L 20.90625 -7.53125 Z M 21.171875 -7.1875 "/></g></g></g><g fill="#006029" fill-opacity="1"><g transform="translate(240.852611, 218.797282)"><g><path d="M 21.171875 -7.1875 C 20.765625 -5.207031 20.421875 -2.863281 20.140625 -0.15625 L 19.765625 0.265625 C 14.921875 0.0859375 10.976562 0 7.9375 0 C 5.8125 0 3.644531 0.125 1.4375 0.375 L 1.703125 -2.171875 C 2.773438 -2.316406 3.5 -2.617188 3.875 -3.078125 C 4.257812 -3.535156 4.453125 -4.320312 4.453125 -5.4375 L 4.484375 -19.90625 C 4.484375 -20.75 4.40625 -21.300781 4.25 -21.5625 C 4.101562 -21.832031 3.773438 -21.96875 3.265625 -21.96875 C 2.941406 -21.96875 2.550781 -21.941406 2.09375 -21.890625 L 1.859375 -22.234375 L 2.171875 -24.515625 L 2.921875 -24.515625 C 4.722656 -24.429688 6.765625 -24.390625 9.046875 -24.390625 C 14.691406 -24.390625 18.539062 -24.546875 20.59375 -24.859375 L 20.90625 -24.4375 C 20.695312 -23.5 20.507812 -22.382812 20.34375 -21.09375 C 20.1875 -19.800781 20.082031 -18.625 20.03125 -17.5625 L 16.640625 -17.328125 L 16.71875 -18.84375 C 16.71875 -19.601562 16.609375 -20.140625 16.390625 -20.453125 C 16.179688 -20.773438 15.753906 -20.992188 15.109375 -21.109375 C 14.460938 -21.222656 13.378906 -21.28125 11.859375 -21.28125 C 11.203125 -21.28125 10.742188 -21.253906 10.484375 -21.203125 C 10.234375 -21.148438 10.0625 -21.035156 9.96875 -20.859375 C 9.882812 -20.679688 9.828125 -20.390625 9.796875 -19.984375 L 9.53125 -14.015625 L 13.109375 -13.984375 C 13.640625 -13.984375 14.300781 -14.015625 15.09375 -14.078125 C 15.894531 -14.140625 16.703125 -14.222656 17.515625 -14.328125 L 17.828125 -13.984375 L 17.296875 -10.75 C 16.960938 -10.75 16.707031 -10.765625 16.53125 -10.796875 C 14.757812 -10.847656 13.351562 -10.875 12.3125 -10.875 C 11.53125 -10.875 10.554688 -10.796875 9.390625 -10.640625 L 9.3125 -5.203125 C 9.3125 -4.492188 9.367188 -3.988281 9.484375 -3.6875 C 9.597656 -3.382812 9.8125 -3.179688 10.125 -3.078125 C 10.445312 -2.972656 11 -2.921875 11.78125 -2.921875 C 13.445312 -2.921875 14.65625 -3.015625 15.40625 -3.203125 C 16.15625 -3.398438 16.691406 -3.789062 17.015625 -4.375 C 17.347656 -4.957031 17.601562 -5.921875 17.78125 -7.265625 L 20.90625 -7.53125 Z M 21.171875 -7.1875 "/></g></g></g><g fill="#006029" fill-opacity="1"><g transform="translate(263.495981, 218.797282)"><g><path d="M 20.03125 1.03125 C 17.539062 -2.925781 15.035156 -6.78125 12.515625 -10.53125 C 9.992188 -14.28125 8.734375 -16.128906 8.734375 -16.078125 L 8.390625 -16.078125 L 8.359375 -4.109375 C 8.359375 -3.441406 8.453125 -2.988281 8.640625 -2.75 C 8.835938 -2.507812 9.175781 -2.390625 9.65625 -2.390625 L 11.328125 -2.46875 L 11.515625 -2.234375 L 11.140625 0.15625 C 10.785156 0.125 10.125 0.0859375 9.15625 0.046875 C 8.195312 0.015625 7.234375 0 6.265625 0 C 5.429688 0 4.53125 0.0390625 3.5625 0.125 C 2.601562 0.21875 1.984375 0.273438 1.703125 0.296875 L 1.96875 -2.203125 C 2.757812 -2.304688 3.332031 -2.539062 3.6875 -2.90625 C 4.039062 -3.269531 4.226562 -3.832031 4.25 -4.59375 L 4.71875 -19.6875 C 4.71875 -20.5 4.515625 -21.066406 4.109375 -21.390625 C 3.703125 -21.722656 2.878906 -21.953125 1.640625 -22.078125 L 1.375 -22.421875 L 1.640625 -24.59375 C 1.910156 -24.5625 2.5 -24.519531 3.40625 -24.46875 C 4.320312 -24.414062 5.175781 -24.390625 5.96875 -24.390625 C 6.625 -24.390625 7.328125 -24.410156 8.078125 -24.453125 C 8.828125 -24.492188 9.3125 -24.523438 9.53125 -24.546875 C 11.613281 -21.148438 13.851562 -17.648438 16.25 -14.046875 C 18.644531 -10.453125 19.84375 -8.679688 19.84375 -8.734375 L 20.21875 -8.734375 L 20.140625 -20.328125 C 20.117188 -20.910156 20.007812 -21.328125 19.8125 -21.578125 C 19.625 -21.835938 19.316406 -21.96875 18.890625 -21.96875 L 17.5625 -21.921875 L 17.4375 -22.1875 L 17.703125 -24.546875 C 18.054688 -24.523438 18.707031 -24.492188 19.65625 -24.453125 C 20.613281 -24.410156 21.570312 -24.390625 22.53125 -24.390625 C 23.289062 -24.390625 24.144531 -24.414062 25.09375 -24.46875 C 26.050781 -24.519531 26.679688 -24.5625 26.984375 -24.59375 L 26.796875 -22.078125 C 25.929688 -21.953125 25.3125 -21.710938 24.9375 -21.359375 C 24.570312 -21.003906 24.378906 -20.445312 24.359375 -19.6875 L 23.859375 0.53125 Z M 20.03125 1.03125 "/></g></g></g><g fill="#006029" fill-opacity="1"><g transform="translate(144.893951, 235.497289)"><g><path d="M 5.71875 -4.484375 C 6.902344 -4.847656 7.605469 -5.769531 7.605469 -7.121094 C 7.605469 -8.96875 6.367188 -9.917969 4.457031 -9.917969 L 1.027344 -9.917969 L 1.027344 0 L 1.921875 0 L 1.921875 -4.316406 L 4.457031 -4.316406 C 4.589844 -4.316406 4.71875 -4.316406 4.835938 -4.328125 L 6.707031 0 L 7.695312 0 Z M 1.921875 -5.09375 L 1.921875 -9.109375 L 4.339844 -9.109375 C 5.847656 -9.109375 6.71875 -8.371094 6.71875 -7.097656 C 6.71875 -5.808594 5.875 -5.09375 4.339844 -5.09375 Z M 1.921875 -5.09375 "/></g></g></g><g fill="#006029" fill-opacity="1"><g transform="translate(153.198402, 235.497289)"><g><path d="M 7.34375 0 L 7.34375 -0.804688 L 1.921875 -0.804688 L 1.921875 -4.574219 L 6.679688 -4.574219 L 6.679688 -5.382812 L 1.921875 -5.382812 L 1.921875 -9.109375 L 7.34375 -9.109375 L 7.34375 -9.917969 L 1.027344 -9.917969 L 1.027344 0 Z M 7.34375 0 "/></g></g></g><g fill="#006029" fill-opacity="1"><g transform="translate(161.112975, 235.497289)"><g><path d="M 1.128906 0 L 2.132812 -2.675781 L 6.8125 -2.675781 L 7.8125 0 L 8.734375 0 L 4.992188 -9.917969 L 3.953125 -9.917969 L 0.207031 0 Z M 4.472656 -8.996094 L 6.523438 -3.484375 L 2.417969 -3.484375 Z M 4.472656 -8.996094 "/></g></g></g><g fill="#006029" fill-opacity="1"><g transform="translate(170.054232, 235.497289)"><g><path d="M 6.472656 0 L 6.472656 -0.804688 L 1.921875 -0.804688 L 1.921875 -9.917969 L 1.027344 -9.917969 L 1.027344 0 Z M 6.472656 0 "/></g></g></g><g fill="#006029" fill-opacity="1"><g transform="translate(176.721193, 235.497289)"><g/></g></g><g fill="#006029" fill-opacity="1"><g transform="translate(180.360082, 235.497289)"><g><path d="M 7.34375 0 L 7.34375 -0.804688 L 1.921875 -0.804688 L 1.921875 -4.574219 L 6.679688 -4.574219 L 6.679688 -5.382812 L 1.921875 -5.382812 L 1.921875 -9.109375 L 7.34375 -9.109375 L 7.34375 -9.917969 L 1.027344 -9.917969 L 1.027344 0 Z M 7.34375 0 "/></g></g></g><g fill="#006029" fill-opacity="1"><g transform="translate(188.274655, 235.497289)"><g><path d="M 4.40625 0.128906 C 6.65625 0.128906 7.851562 -1.039062 7.851562 -2.769531 C 7.851562 -4.875 6.097656 -5.265625 4.484375 -5.613281 C 3.121094 -5.914062 1.84375 -6.199219 1.84375 -7.5 C 1.84375 -8.578125 2.808594 -9.242188 4.160156 -9.242188 C 5.433594 -9.242188 6.394531 -8.722656 6.667969 -7.304688 L 7.527344 -7.304688 C 7.214844 -9.242188 5.902344 -10.046875 4.171875 -10.046875 C 2.328125 -10.046875 0.949219 -9.035156 0.949219 -7.433594 C 0.949219 -5.523438 2.574219 -5.171875 4.132812 -4.835938 C 5.574219 -4.523438 6.953125 -4.222656 6.953125 -2.730469 C 6.953125 -1.441406 6.042969 -0.675781 4.472656 -0.675781 C 3.144531 -0.675781 1.753906 -1.183594 1.46875 -2.808594 L 0.558594 -2.808594 C 0.882812 -0.714844 2.535156 0.128906 4.40625 0.128906 Z M 4.40625 0.128906 "/></g></g></g><g fill="#006029" fill-opacity="1"><g transform="translate(196.761055, 235.497289)"><g><path d="M 4.5625 0 L 4.5625 -9.109375 L 8.058594 -9.109375 L 8.058594 -9.917969 L 0.183594 -9.917969 L 0.183594 -9.109375 L 3.664062 -9.109375 L 3.664062 0 Z M 4.5625 0 "/></g></g></g><g fill="#006029" fill-opacity="1"><g transform="translate(205.000526, 235.497289)"><g><path d="M 1.128906 0 L 2.132812 -2.675781 L 6.8125 -2.675781 L 7.8125 0 L 8.734375 0 L 4.992188 -9.917969 L 3.953125 -9.917969 L 0.207031 0 Z M 4.472656 -8.996094 L 6.523438 -3.484375 L 2.417969 -3.484375 Z M 4.472656 -8.996094 "/></g></g></g><g fill="#006029" fill-opacity="1"><g transform="translate(213.941783, 235.497289)"><g><path d="M 4.5625 0 L 4.5625 -9.109375 L 8.058594 -9.109375 L 8.058594 -9.917969 L 0.183594 -9.917969 L 0.183594 -9.109375 L 3.664062 -9.109375 L 3.664062 0 Z M 4.5625 0 "/></g></g></g><g fill="#006029" fill-opacity="1"><g transform="translate(222.181254, 235.497289)"><g><path d="M 7.34375 0 L 7.34375 -0.804688 L 1.921875 -0.804688 L 1.921875 -4.574219 L 6.679688 -4.574219 L 6.679688 -5.382812 L 1.921875 -5.382812 L 1.921875 -9.109375 L 7.34375 -9.109375 L 7.34375 -9.917969 L 1.027344 -9.917969 L 1.027344 0 Z M 7.34375 0 "/></g></g></g></svg>